<mxfile host="Electron" modified="2024-03-17T20:19:48.836Z" agent="Mozilla/5.0 (X11; Linux x86_64) AppleWebKit/537.36 (KHTML, like Gecko) draw.io/24.0.4 Chrome/120.0.6099.109 Electron/28.1.0 Safari/537.36" etag="Y_xlidoBNRK0o867gUmH" version="24.0.4" type="device">
  <diagram name="Page-1" id="bUzElv2l2GWEFmTksL0H">
    <mxGraphModel dx="584" dy="958" grid="1" gridSize="10" guides="1" tooltips="1" connect="1" arrows="1" fold="1" page="1" pageScale="1" pageWidth="850" pageHeight="1100" math="0" shadow="0">
      <root>
        <mxCell id="0" />
        <mxCell id="1" parent="0" />
        <mxCell id="QkMXo-uOz5fR3eblIkdU-6" value="" style="rounded=0;whiteSpace=wrap;html=1;strokeWidth=1;" parent="1" vertex="1">
          <mxGeometry x="1240" y="40" width="120" height="650" as="geometry" />
        </mxCell>
        <mxCell id="QkMXo-uOz5fR3eblIkdU-9" value="&lt;font style=&quot;font-size: 16px;&quot;&gt;Pamięć wirtualna&lt;/font&gt;" style="text;html=1;align=center;verticalAlign=middle;whiteSpace=wrap;rounded=0;" parent="1" vertex="1">
          <mxGeometry x="1210" y="10" width="180" height="30" as="geometry" />
        </mxCell>
        <mxCell id="QkMXo-uOz5fR3eblIkdU-42" value="" style="endArrow=none;html=1;rounded=0;strokeColor=none;" parent="1" edge="1">
          <mxGeometry width="50" height="50" relative="1" as="geometry">
            <mxPoint x="920.43" y="640" as="sourcePoint" />
            <mxPoint x="920" y="40" as="targetPoint" />
          </mxGeometry>
        </mxCell>
        <mxCell id="ApAm6ha_IGB6OoukJDqG-1" value="&lt;font style=&quot;font-size: 17px;&quot;&gt;&lt;b&gt;0&lt;/b&gt;&lt;b&gt;&lt;br&gt;&lt;/b&gt;&lt;/font&gt;" style="text;html=1;align=center;verticalAlign=middle;whiteSpace=wrap;rounded=0;" parent="1" vertex="1">
          <mxGeometry x="1195" y="670" width="60" height="30" as="geometry" />
        </mxCell>
        <mxCell id="ApAm6ha_IGB6OoukJDqG-2" value="&lt;font style=&quot;font-size: 17px;&quot;&gt;&lt;b style=&quot;font-size: 17px;&quot;&gt;2&lt;/b&gt;&lt;/font&gt;&lt;font size=&quot;1&quot;&gt;&lt;b&gt;&lt;sup style=&quot;font-size: 10px;&quot;&gt;N&lt;/sup&gt;&lt;/b&gt;&lt;/font&gt;" style="text;html=1;align=center;verticalAlign=middle;whiteSpace=wrap;rounded=0;fontSize=17;" parent="1" vertex="1">
          <mxGeometry x="1195" y="34" width="60" height="30" as="geometry" />
        </mxCell>
        <mxCell id="ApAm6ha_IGB6OoukJDqG-3" value="" style="endArrow=none;html=1;rounded=0;strokeColor=none;" parent="1" edge="1">
          <mxGeometry width="50" height="50" relative="1" as="geometry">
            <mxPoint x="1680.4299999999998" y="648.5" as="sourcePoint" />
            <mxPoint x="1680" y="48.5" as="targetPoint" />
          </mxGeometry>
        </mxCell>
        <mxCell id="4U6riaCsUl9iuARCi7AS-7" value="&lt;span style=&quot;font-size: 17px;&quot;&gt;&lt;b&gt;stack&lt;/b&gt;&lt;/span&gt;" style="rounded=0;whiteSpace=wrap;html=1;fillColor=#D5E8D4;strokeWidth=1;" parent="1" vertex="1">
          <mxGeometry x="1240" y="170" width="120" height="120" as="geometry" />
        </mxCell>
        <mxCell id="4U6riaCsUl9iuARCi7AS-11" value="&lt;span style=&quot;font-size: 17px;&quot;&gt;&lt;b&gt;.text&lt;/b&gt;&lt;/span&gt;" style="rounded=0;whiteSpace=wrap;html=1;fillColor=#D5E8D4;strokeWidth=1;" parent="1" vertex="1">
          <mxGeometry x="1240" y="543.5" width="120" height="120" as="geometry" />
        </mxCell>
        <mxCell id="4U6riaCsUl9iuARCi7AS-8" value="&lt;span style=&quot;font-size: 17px;&quot;&gt;&lt;b&gt;.rodata&lt;/b&gt;&lt;/span&gt;" style="rounded=0;whiteSpace=wrap;html=1;fillColor=#D5E8D4;strokeWidth=1;" parent="1" vertex="1">
          <mxGeometry x="1240" y="383.5" width="120" height="80" as="geometry" />
        </mxCell>
        <mxCell id="4U6riaCsUl9iuARCi7AS-9" value="&lt;span style=&quot;font-size: 17px;&quot;&gt;&lt;b&gt;.data&lt;/b&gt;&lt;/span&gt;" style="rounded=0;whiteSpace=wrap;html=1;fillColor=#D5E8D4;strokeWidth=1;" parent="1" vertex="1">
          <mxGeometry x="1240" y="463.5" width="120" height="80" as="geometry" />
        </mxCell>
      </root>
    </mxGraphModel>
  </diagram>
</mxfile>
